<?xml version="1.0" encoding="utf-8"?>
<!-- Generator: Adobe Illustrator 24.3.0, SVG Export Plug-In . SVG Version: 6.00 Build 0)  -->
<svg version="1.1" id="Layer_1" xmlns="http://www.w3.org/2000/svg" xmlns:xlink="http://www.w3.org/1999/xlink" x="0px" y="0px"
	 viewBox="0 0 402.706 115.647" style="enable-background:new 0 0 402.706 115.647;" xml:space="preserve">
<style type="text/css">
	.st0{fill:#2FAD6F;}
	.st1{fill:#0A2928;}
	.st2{fill-rule:evenodd;clip-rule:evenodd;fill:#27316F;}
	.st3{fill:#FFFFFF;}
	.st4{fill:#F8F7F7;}
	.st5{fill:#020203;}
	.st6{fill:#057032;}
	.st7{fill:#E4201B;}
	.st8{fill-rule:evenodd;clip-rule:evenodd;fill:#E52521;}
	.st9{fill:#E52521;}
	.st10{fill-rule:evenodd;clip-rule:evenodd;fill:#FFFFFF;}
	.st11{fill-rule:evenodd;clip-rule:evenodd;fill:#D0043C;}
	.st12{fill-rule:evenodd;clip-rule:evenodd;fill:#004289;}
</style>
<g>
	<path class="st0" d="M135.339,81.194c-4.098-4.012-6.132-8.998-6.132-14.958c0-5.932,2.035-10.918,6.132-14.93
		c4.098-4.012,9.17-6.018,15.274-6.018c5.588,0,10.374,1.69,14.328,5.101s6.247,7.766,6.906,13.038h-9.428
		c-0.602-2.779-1.977-5.043-4.126-6.791c-2.178-1.748-4.728-2.607-7.68-2.607c-3.439,0-6.304,1.175-8.625,3.495
		c-2.321,2.321-3.467,5.244-3.467,8.712c0,3.496,1.146,6.391,3.467,8.711c2.321,2.321,5.187,3.496,8.625,3.496
		c2.952,0,5.502-0.859,7.68-2.607c2.149-1.748,3.525-3.983,4.126-6.763h9.428c-0.659,5.272-2.98,9.6-6.906,13.01
		c-3.955,3.41-8.74,5.13-14.328,5.13C144.508,87.212,139.437,85.206,135.339,81.194z"/>
	<path class="st3" d="M202.415,86.495l-2.521-7.106h-16.449l-2.521,7.106h-9.743l15.216-40.491h10.746l15.245,40.491H202.415z
		 M186.397,70.992h10.545l-5.272-14.958L186.397,70.992z"/>
	<path class="st3" d="M231.666,46.004c4.041,0,7.422,1.318,10.145,3.926c2.722,2.608,4.069,5.903,4.069,9.858
		c0,3.954-1.348,7.25-4.069,9.857c-2.723,2.607-6.104,3.926-10.145,3.926h-5.846v12.924h-9.112V46.004H231.666z M231.437,65.003
		c1.462,0,2.665-0.487,3.64-1.49c0.975-1.003,1.462-2.234,1.462-3.725s-0.487-2.723-1.462-3.726s-2.178-1.49-3.64-1.49h-5.616
		v10.431H231.437z"/>
	<path class="st3" d="M250.775,86.495V46.004h9.112v40.491H250.775z"/>
	<path class="st3" d="M301.235,46.004h11.605v40.491h-9.084V61.565l-10.459,24.931h-6.219l-10.373-24.816v24.816h-9.112V46.004
		h11.749l10.918,26.278L301.235,46.004z"/>
	<path class="st3" d="M348.336,86.495l-2.521-7.106h-16.448l-2.522,7.106h-9.743l15.217-40.491h10.746l15.245,40.491H348.336z
		 M332.318,70.992h10.546l-5.273-14.958L332.318,70.992z"/>
	<path class="st3" d="M400.541,86.495h-11.147l-9.514-14.013l-9.484,14.013H359.22l14.385-20.374l-14.127-20.117h11.204
		l9.313,13.727l9.227-13.727h11.09l-14.099,20.117L400.541,86.495z"/>
</g>
<g>
	<path class="st3" d="M238.462,100.794c0.344,0.05,0.651,0.141,0.926,0.273c0.273,0.133,0.509,0.304,0.705,0.511
		c0.197,0.208,0.348,0.454,0.453,0.739c0.104,0.285,0.157,0.609,0.157,0.975c0,0.261-0.038,0.533-0.115,0.818
		s-0.204,0.562-0.382,0.83s-0.41,0.516-0.697,0.742c-0.288,0.228-0.645,0.413-1.072,0.557c-0.328,0.11-0.692,0.188-1.092,0.232
		c-0.4,0.044-0.879,0.066-1.438,0.066h-2.841V95.432h2.741c0.251,0,0.479,0.004,0.685,0.013c0.205,0.008,0.394,0.021,0.566,0.037
		c0.172,0.017,0.332,0.037,0.479,0.062c0.148,0.024,0.287,0.054,0.419,0.087c0.345,0.094,0.657,0.223,0.939,0.386
		s0.521,0.358,0.718,0.586c0.197,0.227,0.35,0.483,0.455,0.771c0.107,0.288,0.16,0.601,0.16,0.938c0,0.271-0.031,0.531-0.095,0.781
		c-0.063,0.248-0.166,0.479-0.308,0.688c-0.141,0.21-0.323,0.398-0.548,0.564c-0.224,0.166-0.497,0.305-0.817,0.415V100.794z
		 M236.478,100.238c0.266,0,0.496-0.012,0.689-0.037c0.193-0.024,0.368-0.062,0.523-0.111c0.414-0.139,0.718-0.354,0.908-0.648
		c0.191-0.293,0.287-0.639,0.287-1.037c0-0.409-0.1-0.744-0.299-1.004c-0.199-0.261-0.512-0.454-0.938-0.582
		c-0.21-0.061-0.454-0.104-0.73-0.128c-0.276-0.025-0.603-0.038-0.979-0.038h-1.52v3.586H236.478z M234.419,101.458v3.859h1.636
		c0.388,0,0.747-0.018,1.079-0.054s0.614-0.093,0.847-0.17c0.255-0.083,0.47-0.189,0.647-0.319s0.319-0.274,0.428-0.432
		c0.107-0.158,0.186-0.325,0.232-0.502c0.047-0.178,0.07-0.357,0.07-0.54c0-0.21-0.025-0.408-0.074-0.594
		c-0.051-0.186-0.132-0.352-0.245-0.498c-0.114-0.146-0.263-0.275-0.448-0.386s-0.416-0.196-0.693-0.258
		c-0.166-0.038-0.355-0.066-0.568-0.082c-0.213-0.018-0.478-0.025-0.793-0.025H234.419z"/>
	<path class="st3" d="M256.626,101.94v4.599h-1.354V95.432h2.877c0.486,0,0.9,0.018,1.24,0.054s0.65,0.093,0.934,0.17
		c0.773,0.211,1.365,0.569,1.773,1.075c0.409,0.507,0.613,1.139,0.613,1.897c0,0.447-0.071,0.849-0.215,1.203
		c-0.145,0.354-0.346,0.661-0.606,0.922c-0.261,0.26-0.571,0.473-0.935,0.639c-0.361,0.166-0.764,0.288-1.207,0.365v0.033
		l3.287,4.748h-1.354l-3.42-4.599H256.626z M256.626,96.652v4.068h1.336c0.416,0,0.77-0.015,1.062-0.042
		c0.294-0.027,0.557-0.077,0.789-0.149c0.471-0.144,0.833-0.373,1.088-0.689c0.254-0.314,0.381-0.728,0.381-1.236
		c-0.005-0.476-0.127-0.859-0.365-1.149c-0.237-0.291-0.566-0.5-0.987-0.627c-0.199-0.061-0.437-0.105-0.714-0.133
		s-0.628-0.042-1.055-0.042H256.626z"/>
	<path class="st3" d="M281.058,99.931l3.07-4.499h1.503l-3.769,5.47l3.943,5.637h-1.52l-3.254-4.707H281l-3.254,4.707h-1.535
		l3.976-5.67l-3.735-5.437h1.486l3.088,4.499H281.058z"/>
</g>
<g>
	<path class="st0" d="M58.599,45.359L55.28,54.04l-0.465,1.221H30.979c-10.951,0-19.861,9.287-19.861,20.687
		c0,11.411,8.911,20.687,19.861,20.687h8.002l-3.319,8.682l-0.169,0.44l-0.296,0.781h-4.217c-16.193,0-29.374-13.721-29.374-30.59
		s13.181-30.59,29.374-30.59H58.599z"/>
</g>
<g>
	<g>
		<polygon class="st3" points="73.443,42.685 68.63,55.262 52.796,96.635 49.012,106.539 48.843,106.979 38.442,106.979 
			38.611,106.539 42.395,96.635 58.229,55.262 62.013,45.359 63.038,42.685 68.662,42.685 		"/>
	</g>
</g>
<g>
	<g>
		<polygon class="st3" points="99.245,24.192 67.575,106.979 57.164,106.979 88.832,24.192 		"/>
	</g>
</g>
<g>
	<g>
		<polygon class="st3" points="126.755,0.706 86.295,106.979 75.894,106.979 116.547,0.706 		"/>
	</g>
</g>
</svg>
