<svg xmlns="http://www.w3.org/2000/svg" width="512" height="512" viewBox="0 0 512 512">
  <rect width="512" height="512" rx="104" fill="#0A2928"/>
  <!-- The CapiMax BRX "C" mark, centred within the maskable safe zone on the brand navy. -->
  <svg x="116" y="146" width="280" height="220" viewBox="0 0 128 108" preserveAspectRatio="xMidYMid meet">
    <path fill="#2FAD6F" d="M58.599,45.359L55.28,54.04l-0.465,1.221H30.979c-10.951,0-19.861,9.287-19.861,20.687c0,11.411,8.911,20.687,19.861,20.687h8.002l-3.319,8.682l-0.169,0.44l-0.296,0.781h-4.217c-16.193,0-29.374-13.721-29.374-30.59s13.181-30.59,29.374-30.59H58.599z"/>
    <polygon fill="#FFFFFF" points="73.443,42.685 68.63,55.262 52.796,96.635 49.012,106.539 48.843,106.979 38.442,106.979 38.611,106.539 42.395,96.635 58.229,55.262 62.013,45.359 63.038,42.685 68.662,42.685"/>
    <polygon fill="#FFFFFF" points="99.245,24.192 67.575,106.979 57.164,106.979 88.832,24.192"/>
    <polygon fill="#FFFFFF" points="126.755,0.706 86.295,106.979 75.894,106.979 116.547,0.706"/>
  </svg>
</svg>
